<svg height="512pt" viewBox="0 0 512 512" width="512pt" xmlns="http://www.w3.org/2000/svg"><path d="m131 274.5h250v200h-250zm0 0" fill="#ffe73d"/><path d="m444.5 412.5h-30l60 92h30v-32c0-33-27-60-60-60zm0 0" fill="#5a9f2e"/><path d="m414.5 412.5h-33.5l-125 18.507812-125-18.507812h-63.5c-33 0-60 27-60 60v32h83.5l30-42 30 42h210l30-42 30 42h53.5v-32c0-33-27-60-60-60zm0 0" fill="#87c241"/><path d="m361 431.007812 20-18.507812h-250l20 18.507812c57.988281 57.988282 152.011719 57.988282 210 0zm0 0" fill="#5a9f2e"/><path d="m256 7.5 135 165h30c0-90.980469-74.019531-165-165-165zm0 0" fill="#ffe73d"/><path d="m256 7.5c-90.980469 0-165 74.019531-165 165h300c0-90.980469-60.5625-165-135-165zm0 0" fill="#fff39e"/><path d="m91 172.5h60v332h-60zm0 0" fill="#fff39e"/><path d="m361 172.5 30 332h30v-332zm0 0" fill="#ffe73d"/><path d="m361 172.5h30v332h-30zm0 0" fill="#fff39e"/><path d="m361 172.5h60v332h-60zm0 0" fill="#fff39e"/><path d="m391 172.5c0-38.660156 31.339844-70 70-70l-31.292969 120.113281c-4.480469 17.195313-20.109375 29.886719-38.707031 29.886719h-135v-80zm0 0" fill="#ffb9a0"/><path d="m121 172.5c0-38.660156-31.339844-70-70-70l31.292969 120.113281c4.480469 17.195313 20.109375 29.886719 38.707031 29.886719h135v-80zm0 0" fill="#ffdccf"/><path d="m256 77.5v305c74.558594 0 135-60.441406 135-135v-77zm0 0" fill="#ffb9a0"/><path d="m121 170.5v77c0 74.558594 60.441406 135 135 135 57.988281 0 105-60.441406 105-135v-97l-98.972656-73h-12.054688zm0 0" fill="#ffdccf"/><path d="m262.027344 77.5c17.046875 55.027344 68.339844 95 128.972656 95 0-37.046875-14.929688-70.605469-39.09375-95zm0 0" fill="#fff39e"/><path d="m160.09375 77.5c-24.164062 24.394531-39.09375 57.953125-39.09375 95 60.632812 0 111.925781-39.972656 128.972656-95zm0 0" fill="#fff39e"/><path d="m370.257812 56.855469-30 25.644531 30 10h30v-45zm0 0" fill="#fea228"/><path d="m352.167969 62.5-48.089844-15-48.085937 15-48.085938-15-48.082031 15-48.082031-15v45h258.515624v-35.644531zm0 0" fill="#fcd10f"/><path d="m227 300h60c4.140625 0 7.5-3.355469 7.5-7.5s-3.359375-7.5-7.5-7.5h-60c-4.140625 0-7.5 3.355469-7.5 7.5s3.359375 7.5 7.5 7.5zm0 0"/><path d="m301 228c4.140625 0 7.5-3.355469 7.5-7.5v-.5h22.5c4.140625 0 7.5-3.355469 7.5-7.5s-3.359375-7.5-7.5-7.5h-30c-4.140625 0-7.5 3.355469-7.5 7.5v8c0 4.144531 3.359375 7.5 7.5 7.5zm0 0"/><path d="m181 220h22.5v.5c0 4.144531 3.359375 7.5 7.5 7.5s7.5-3.355469 7.5-7.5v-8c0-4.144531-3.359375-7.5-7.5-7.5h-30c-4.140625 0-7.5 3.355469-7.5 7.5s3.359375 7.5 7.5 7.5zm0 0"/><path d="m444.5 405h-16v-163.335938c3.871094-4.976562 6.800781-10.773437 8.464844-17.160156l31.292968-120.113281c.585938-2.246094.097657-4.640625-1.324218-6.476563-1.417969-1.839843-3.609375-2.914062-5.933594-2.914062-16.585938 0-31.957031 5.253906-44.574219 14.160156-2.515625-6.34375-5.414062-12.546875-8.667969-18.558594v-43.101562c0-2.386719-1.132812-4.628906-3.054687-6.039062-1.921875-1.414063-4.398437-1.828126-6.679687-1.121094l-23.199219 7.238281c-32.234375-30.714844-74.25-47.578125-118.824219-47.578125-44.578125 0-86.59375 16.863281-118.824219 47.578125l-23.199219-7.238281c-2.277343-.710938-4.757812-.292969-6.679687 1.117187-1.917969 1.414063-3.054687 3.65625-3.054687 6.042969v43.101562c-3.253907 6.011719-6.152344 12.21875-8.667969 18.558594-12.617188-8.90625-27.988281-14.160156-44.574219-14.160156-2.324219 0-4.515625 1.074219-5.933594 2.914062-1.421875 1.835938-1.910156 4.230469-1.324218 6.476563l31.292968 120.113281c1.664063 6.390625 4.59375 12.183594 8.464844 17.160156v163.335938h-16c-37.21875 0-67.5 30.28125-67.5 67.5v32c0 4.144531 3.359375 7.5 7.5 7.5h497c4.140625 0 7.5-3.355469 7.5-7.5v-32c0-37.21875-30.28125-67.5-67.5-67.5zm-286 15h195v7.847656c-54.394531 52.109375-140.601562 52.109375-195 0zm195-15h-195v-53.679688c25.507812 23.96875 59.816406 38.679688 97.5 38.679688s71.992188-14.710938 97.5-38.679688zm-195 42.773438c28.386719 22.761718 62.941406 34.152343 97.5 34.152343s69.113281-11.390625 97.5-34.152343v49.226562h-195zm210-112.914063c16.488281-21.183594 27.128906-47.125 29.492188-75.382813 5.503906-.820312 10.738281-2.578124 15.507812-5.140624v242.664062h-45zm15.386719-170.078125c-43.480469-2.433594-82.738281-27-104.019531-64.78125h115.90625c3.3125 6.359375 6.1875 12.949219 8.59375 19.675781-11.28125 12.082031-18.757813 27.753907-20.480469 45.105469zm-127.886719-149.78125c37.855469 0 73.683594 13.328125 102.195312 37.765625l-6.027343 1.878906-45.855469-14.304687c-1.457031-.453125-3.015625-.453125-4.46875 0l-45.851562 14.304687-45.851563-14.304687c-1.453125-.453125-3.011719-.453125-4.464844 0l-45.851562 14.304687-6.019531-1.878906c28.507812-24.4375 64.339843-37.765625 102.195312-37.765625zm-136.757812 42.695312 17.792968 5.550782c.023438.007812.046875.015625.070313.023437l20.484375 6.390625c1.453125.453125 3.011718.453125 4.46875 0l45.847656-14.304687 45.855469 14.304687c1.453125.453125 3.011719.453125 4.464843 0l45.851563-14.304687 45.859375 14.304687c1.453125.453125 3.011719.453125 4.464844 0l38.359375-11.964844v27.304688h-125.175781c-.027344 0-.054688 0-.078126 0h-23.019531c-.019531 0-.042969 0-.0625 0h-125.183593zm8.871093 107.085938c-1.722656-17.351562-9.199219-33.023438-20.480469-45.105469 2.40625-6.726562 5.28125-13.316406 8.59375-19.675781h115.902344c-21.277344 37.78125-60.535156 62.347656-104.015625 64.78125zm-67.203125-53.996094c29.769532 4.761719 52.589844 30.625 52.589844 61.714844v30c0 4.144531 3.359375 7.5 7.5 7.5s7.5-3.355469 7.5-7.5v-22.722656c51.546875-2.71875 97.859375-33.265625 120.582031-79.777344h13.832031c22.726563 46.511719 69.039063 77.0625 120.585938 79.777344v22.722656c0 4.144531 3.355469 7.5 7.5 7.5 4.140625 0 7.5-3.355469 7.5-7.5v-30c0-31.089844 22.820312-56.953125 52.589844-61.714844l-28.640625 109.9375c-1.273438 4.882813-3.621094 9.265625-6.753907 12.917969-.1875.1875-.367187.394531-.535156.601563-4.382812 4.863281-10.179687 8.34375-16.660156 9.878906v-11.621094c0-4.144531-3.359375-7.5-7.5-7.5s-7.5 3.355469-7.5 7.5v15c0 70.304688-57.195312 127.5-127.5 127.5s-127.5-57.195312-127.5-127.5v-15c0-4.144531-3.359375-7.5-7.5-7.5s-7.5 3.355469-7.5 7.5v11.617188c-6.480469-1.53125-12.277344-5.011719-16.660156-9.875-.167969-.207032-.347656-.414063-.539063-.601563-3.128906-3.652344-5.480469-8.035156-6.75-12.917969zm-45.910156 361.714844c0-28.949219 23.550781-52.5 52.5-52.5h16v54.5c0 4.144531 3.359375 7.5 7.5 7.5s7.5-3.355469 7.5-7.5v-220.164062c4.769531 2.5625 10.003906 4.320312 15.507812 5.140624 2.363282 28.257813 13.003907 54.203126 29.492188 75.382813v162.140625h-128.5zm482 24.5h-68.5v-77h16c28.949219 0 52.5 23.550781 52.5 52.5zm0 0"/></svg>