<svg id="Capa_1" enable-background="new 0 0 512 512" height="512" viewBox="0 0 512 512" width="512" xmlns="http://www.w3.org/2000/svg"><g><g><path d="m38.396 301.494c-.648 17.124 1.005 47.754 17.201 74.748l56.113-32.065c-22.447-11.224-48.823-34.233-62.625-47.026-3.989-3.696-10.484-1.091-10.689 4.343z" fill="#f5ebcd"/><path d="m360.57 341.205c-10.469-3.221-19.163-10.587-24.062-20.383l-24.395-48.789h-112.226l-24.395 48.789c-4.898 9.797-13.593 17.162-24.062 20.383l-87.817 27.021v136.274h384.774v-136.274z" fill="#95cc81"/><path d="m296.081 408.306c0-22.136-17.945-40.081-40.081-40.081s-40.081 17.945-40.081 40.081v8.016h24.048v64.129c0 8.854 7.178 16.032 16.032 16.032s16.032-7.178 16.032-16.032v-64.129h24.048v-8.016z" fill="#f5ebcd"/><path d="m182.193 307.419c14.799 8.081 31.742 12.71 49.758 12.71h48.097c18.017 0 34.959-4.629 49.758-12.71l-17.694-35.387h-112.225z" fill="#7dbd80"/><path d="m409.794 93.373-33.553 29.358v-19.038c0-53.126-43.067-96.194-96.194-96.194h-48.097c-53.126 0-96.194 43.067-96.194 96.194v19.038l-33.553-29.358c-2.749-2.406-7.089-.611-7.262 3.038-.792 16.737.545 53.234 24.782 71.411 0 17.708 14.356 32.065 32.065 32.065v16.032c0 44.272 35.889 80.161 80.161 80.161h48.097c44.272 0 80.161-35.889 80.161-80.161v-16.032c17.709 0 32.065-14.356 32.065-32.065 24.237-18.177 25.574-54.675 24.782-71.411-.171-3.649-4.51-5.443-7.26-3.038z" fill="#aedb81"/><path d="m191.871 215.919v-145.124c0-25.24-33.926-33.443-45.495-11.011-6.785 13.155-10.617 28.078-10.617 43.91v19.038l-33.552-29.358c-2.749-2.406-7.089-.612-7.262 3.038-.792 16.736.545 53.234 24.782 71.411 0 17.708 14.356 32.065 32.065 32.065v16.032c0 44.272 35.889 80.161 80.161 80.161h40.081c-44.273 0-80.163-35.89-80.163-80.162z" fill="#95cc81"/><path d="m198.598 217.491c.749 3.747 4.039 6.444 7.861 6.444h33.509l-40.181-33.484c-2.636-2.196-6.568.143-5.895 3.507z" fill="#fff"/><path d="m272.032 223.935h33.509c3.821 0 7.111-2.697 7.861-6.444l4.707-23.533c.673-3.364-3.259-5.704-5.895-3.507z" fill="#fff"/><g fill="#eac89f"><path d="m100.743 337.695c-31.388 8.56-53.163 37.069-53.163 69.603v22.361c0 4.827 5.166 7.894 9.404 5.582l53.708-29.295c15.452-8.428 25.066-24.623 25.066-42.224v-27.252c0-4.193-3.987-7.238-8.032-6.135z"/><circle cx="223.936" cy="416.323" r="16.032"/><circle cx="288.065" cy="416.323" r="16.032"/><path d=""/></g><path d="m473.604 301.494c.648 17.124-1.005 47.754-17.201 74.748l-56.113-32.065c22.447-11.224 48.823-34.233 62.625-47.026 3.989-3.696 10.484-1.091 10.689 4.343z" fill="#f5ebcd"/><path d="m411.257 337.695c31.388 8.56 53.163 37.069 53.163 69.603v22.361c0 4.827-5.166 7.894-9.404 5.582l-53.708-29.295c-15.452-8.428-25.066-24.623-25.066-42.224v-27.252c0-4.193 3.987-7.238 8.032-6.135z" fill="#eac89f"/></g><g><path d="m192.772 141.402c-1.31 3.93.814 8.177 4.744 9.487l12.581 4.193c-1.047 1.29-1.677 2.933-1.677 4.724v8.016c0 4.143 3.358 7.5 7.5 7.5s7.5-3.357 7.5-7.5v-8.016c0-.188-.015-.373-.028-.558.182.013.365.043.545.043 3.14 0 6.066-1.987 7.114-5.13 1.31-3.93-.814-8.177-4.744-9.487l-24.048-8.016c-3.929-1.308-8.177.815-9.487 4.744z"/><path d="m319.228 141.402c-1.31-3.93-5.557-6.053-9.487-4.743l-24.048 8.016c-3.93 1.311-6.053 5.558-4.744 9.487 1.048 3.143 3.974 5.13 7.114 5.13.181 0 .363-.03.545-.043-.014.185-.028.37-.028.558v8.016c0 4.143 3.358 7.5 7.5 7.5s7.5-3.357 7.5-7.5v-8.016c0-1.791-.63-3.434-1.677-4.724l12.581-4.193c3.93-1.311 6.054-5.558 4.744-9.488z"/><path d="m320.756 218.962 6.727-33.637c.624-3.118-.787-6.29-3.52-7.916-2.734-1.626-6.194-1.352-8.636.684l-46.011 38.343h-26.634l-46.011-38.343c-2.443-2.035-5.904-2.31-8.636-.684s-4.143 4.798-3.52 7.916l6.727 33.638c1.446 7.227 7.845 12.473 15.215 12.473h99.082c7.373 0 13.772-5.246 15.217-12.474zm-114.297-2.526c-.246 0-.458-.175-.506-.415l-2.561-12.802 15.86 13.217zm102.149-13.217-2.561 12.802c-.048.24-.261.415-.506.415h-12.793z"/><path d="m239.968 248.5c-4.142 0-7.5 3.358-7.5 7.5s3.358 7.5 7.5 7.5h32.064c4.142 0 7.5-3.358 7.5-7.5s-3.358-7.5-7.5-7.5z"/><path d="m247.984 104.21c-4.142 0-7.5 3.357-7.5 7.5 0 4.142 3.358 7.5 7.5 7.5h16.032c4.142 0 7.5-3.358 7.5-7.5 0-4.143-3.358-7.5-7.5-7.5z"/><path d="m288.064 72.146h-64.129c-4.142 0-7.5 3.357-7.5 7.5 0 4.142 3.358 7.5 7.5 7.5h64.129c4.142 0 7.5-3.358 7.5-7.5 0-4.143-3.357-7.5-7.5-7.5z"/><path d="m479.79 286.594c-.542-2.712-2.534-4.906-5.181-5.708-2.646-.801-5.521-.082-7.477 1.875-10.626 10.626-41.812 39.211-60.291 45.955l-28.626-7.807c-2.255-.614-4.668-.143-6.525 1.276-1.858 1.418-2.948 3.623-2.948 5.96v7.727l-5.967-1.836c-8.468-2.605-15.597-8.645-19.56-16.569l-14.377-28.754c23.427-15.753 38.871-42.502 38.871-72.793v-9.246c17.05-3.285 30.239-17.551 31.891-35.12 13.158-11.297 21.49-29.167 24.171-51.954 2.094-17.799.063-32.387-.024-33-.389-2.724-2.238-5.015-4.817-5.972-2.58-.956-5.477-.424-7.546 1.388l-64.129 56.113c-3.117 2.728-3.433 7.466-.706 10.583 2.728 3.118 7.466 3.433 10.583.706l52.561-45.991c-.043 16.998-3.273 44.41-21.919 58.395-1.889 1.417-3 3.64-3 6 0 10.942-7.193 20.233-17.098 23.401-.329-3.838-3.544-6.852-7.467-6.852-4.142 0-7.5 3.357-7.5 7.5v24.048c0 40.065-32.596 72.661-72.661 72.661h-48.097c-40.065 0-72.661-32.596-72.661-72.661v-24.048c0-4.143-3.358-7.5-7.5-7.5-3.923 0-7.138 3.014-7.467 6.852-9.905-3.168-17.098-12.458-17.098-23.401 0-2.36-1.111-4.583-3-6-18.646-13.984-21.875-41.399-21.919-58.395l52.562 45.991c3.117 2.727 7.855 2.412 10.583-.706 2.728-3.117 2.412-7.855-.706-10.583l-21.487-18.801v-15.635c0-48.905 39.788-88.693 88.693-88.693h48.097c41.955 0 78.499 29.782 86.893 70.816.83 4.058 4.795 6.676 8.851 5.845 4.058-.83 6.675-4.793 5.845-8.852-9.816-47.982-52.54-82.809-101.589-82.809h-48.097c-57.177 0-103.693 46.517-103.693 103.693v2.51l-27.642-24.187c-2.072-1.812-4.968-2.345-7.546-1.388-2.579.957-4.428 3.248-4.817 5.972-.087.612-2.118 15.2-.024 33 2.681 22.787 11.013 40.657 24.171 51.954 1.651 17.569 14.841 31.835 31.891 35.12v9.246c0 30.291 15.445 57.041 38.871 72.793l-14.377 28.754c-3.962 7.924-11.091 13.964-19.56 16.569l-5.967 1.836v-7.727c0-2.338-1.09-4.542-2.948-5.96-1.856-1.419-4.27-1.891-6.525-1.276l-28.626 7.807c-18.46-6.738-49.659-35.327-60.292-45.956-1.956-1.956-4.829-2.675-7.477-1.874-2.647.802-4.638 2.995-5.181 5.707-.349 1.742-8.194 42.911 16.511 84.735-5.542 10.906-8.641 23.164-8.641 35.969v33.073c0 2.646 1.396 5.098 3.671 6.449 1.179.699 2.503 1.051 3.829 1.051 1.235 0 2.471-.305 3.591-.916l4.941-2.695v60.24c0 4.142 3.358 7.5 7.5 7.5s7.5-3.358 7.5-7.5v-68.422l11.557-6.304c3.636-1.983 4.977-6.539 2.993-10.176-1.983-3.636-6.54-4.976-10.175-2.993l-20.407 11.131v-20.439c0-29.072 19.589-54.718 47.636-62.367l25.542-6.966v25.758c0 14.865-8.107 28.521-21.158 35.64l-2.876 1.569c-3.636 1.983-4.976 6.54-2.992 10.175 1.983 3.637 6.538 4.977 10.176 2.993l2.875-1.569c17.872-9.748 28.975-28.45 28.975-48.808v-12.156l10.378-3.193c4.889-1.504 9.465-3.803 13.578-6.736 11.262 18.596 28.227 33.336 48.194 41.859-2.64 4.295-4.612 9.06-5.78 14.16-5.604 4.305-9.226 11.069-9.226 18.666 0 12.976 10.557 23.532 23.532 23.532 3.009 0 5.885-.574 8.532-1.607v16.162c-12.873 22.109-37.348 44.291-37.599 44.518-3.078 2.771-3.327 7.512-.556 10.591 1.481 1.646 3.525 2.483 5.577 2.483 1.788 0 3.582-.635 5.015-1.925.808-.727 14.679-13.286 27.567-29.472.082 12.906 10.604 23.381 23.528 23.381 12.925 0 23.446-10.475 23.528-23.381 12.889 16.185 26.76 28.745 27.567 29.472 1.433 1.29 3.227 1.925 5.015 1.925 2.052 0 4.096-.837 5.577-2.483 2.771-3.079 2.521-7.821-.558-10.592-.252-.227-24.701-22.362-37.598-44.517v-16.162c2.647 1.034 5.523 1.607 8.532 1.607 12.976 0 23.532-10.557 23.532-23.532 0-7.597-3.622-14.36-9.226-18.666-1.168-5.1-3.138-9.865-5.778-14.161 19.979-8.524 36.928-23.248 48.194-41.857 4.113 2.932 8.688 5.23 13.577 6.735l10.378 3.193v12.156c0 20.357 11.103 39.06 28.975 48.808l43.171 23.548v68.423c0 4.142 3.358 7.5 7.5 7.5s7.5-3.358 7.5-7.5v-60.24l4.941 2.695c1.121.611 2.356.916 3.591.916 1.326 0 2.65-.352 3.829-1.051 2.276-1.352 3.671-3.803 3.671-6.449v-33.073c0-12.805-3.098-25.063-8.641-35.969 24.71-41.825 16.865-82.993 16.516-84.735zm-421.78 70.448c-10.133-20.224-12.215-39.875-12.189-52.71 10.134 9.25 25.402 22.323 39.623 31.096-10.756 5.141-20.082 12.581-27.434 21.614zm165.926 67.812c-4.705 0-8.532-3.827-8.532-8.532 0-4.704 3.828-8.532 8.532-8.532s8.532 3.828 8.532 8.532c0 4.705-3.828 8.532-8.532 8.532zm32.064 64.13c-4.705 0-8.532-3.828-8.532-8.532v-64.129c0-11.857-8.818-21.689-20.239-23.297 5.548-10.392 16.533-17.3 28.771-17.3 12.243 0 23.225 6.907 28.772 17.3-11.422 1.607-20.24 11.439-20.24 23.297v64.129c0 4.704-3.827 8.532-8.532 8.532zm32.064-64.13c-4.705 0-8.532-3.827-8.532-8.532 0-4.704 3.828-8.532 8.532-8.532s8.532 3.828 8.532 8.532c.001 4.705-3.827 8.532-8.532 8.532zm-1.973-53.356c-8.283-6.765-18.823-10.772-30.091-10.772-11.263 0-21.802 4.008-30.085 10.771-20.226-7.303-37.317-21.919-47.694-40.777 1.493-2.063 2.831-4.247 3.98-6.545l14.091-28.183c10.9 4.874 22.968 7.588 35.66 7.588h48.097c12.691 0 24.759-2.714 35.66-7.588l14.091 28.183c1.148 2.297 2.486 4.479 3.977 6.542-10.382 18.874-27.447 33.472-47.686 40.781zm167.902-14.453c-7.352-9.034-16.679-16.475-27.437-21.617 14.239-8.784 29.528-21.879 39.662-31.131.048 12.804-2.023 32.429-12.225 52.748zm2.926 70.692-52.021-28.375c-13.05-7.119-21.157-20.775-21.157-35.64v-25.758l25.542 6.966c28.047 7.649 47.636 33.295 47.636 62.367z"/><path d="m135.758 448.903c-4.142 0-7.5 3.358-7.5 7.5v48.097c0 4.142 3.358 7.5 7.5 7.5s7.5-3.358 7.5-7.5v-48.097c0-4.142-3.358-7.5-7.5-7.5z"/><path d="m376.242 448.903c-4.142 0-7.5 3.358-7.5 7.5v48.097c0 4.142 3.358 7.5 7.5 7.5s7.5-3.358 7.5-7.5v-48.097c0-4.142-3.358-7.5-7.5-7.5z"/></g></g></svg>